# xmcd
# Track frame offsets:
# 150
# 11618
# 25415
# 40499
# 49871
# 71489
# 82111
# 104446
#
# Disc length: 1517 seconds
# Revision: 0
# Processed by: cddbd v1.5.1PL0 Copyright (c) Steve Scherf et al.
# Submitted via: VisiTrax 2.9.10.220 - For more info visit www.synapsa.com
#
DISCID=6905eb08
DTITLE=Feutering Lennart Jähkel, Niko Röhleke - Songs from Swedish Badlands
DYEAR=1900
DGENRE=
TTITLE0=Your Captain
TTITLE1=Wedding day
TTITLE2=Two hearts on holiday
TTITLE3=Like a girl on my hips
TTITLE4=Sunshine girl from the Swedish Badlands
TTITLE5=Månkarbo
TTITLE6=Mina små fruar
TTITLE7=Do you wanna go to hell with me
EXTD=
EXTT0=
EXTT1=
EXTT2=
EXTT3=
EXTT4=
EXTT5=
EXTT6=
EXTT7=
PLAYORDER=
